<svg version="1.1" viewBox="0.0 0.0 960.0 720.0" fill="none" stroke="none" stroke-linecap="square" stroke-miterlimit="10" xmlns:xlink="http://www.w3.org/1999/xlink" xmlns="http://www.w3.org/2000/svg"><clipPath id="p.0"><path d="m0 0l960.0 0l0 720.0l-960.0 0l0 -720.0z" clip-rule="nonzero"/></clipPath><g clip-path="url(#p.0)"><path fill="#efefef" d="m0 0l960.0 0l0 720.0l-960.0 0z" fill-rule="evenodd"/><path fill="#000000" fill-opacity="0.0" d="m761.3952 363.52835c-1.9443359 155.06595 -128.97021 279.3348 -284.0415 277.87656c-155.07126 -1.458313 -279.73767 -128.09406 -278.7655 -283.16913c0.9721832 -155.07507 127.21654 -280.13782 282.29388 -279.65173c155.07736 0.48609924 280.5352 126.337814 280.5352 281.41595l-281.4173 0z" fill-rule="evenodd"/><path fill="#000000" fill-opacity="0.0" d="m761.3952 363.52835c-1.9443359 155.06595 -128.97021 279.3348 -284.0415 277.87656c-155.07126 -1.458313 -279.73767 -128.09406 -278.7655 -283.16913c0.9721832 -155.07507 127.21654 -280.13782 282.29388 -279.65173c155.07736 0.48609924 280.5352 126.337814 280.5352 281.41595" fill-rule="evenodd"/><path stroke="#434343" stroke-width="12.0" stroke-linejoin="round" stroke-linecap="butt" stroke-dasharray="48.0,36.0" d="m761.3952 363.52838c-1.9443359 155.06592 -128.97028 279.33478 -284.04147 277.87653c-155.07129 -1.458313 -279.73773 -128.09406 -278.7655 -283.16913c0.9721832 -155.07506 127.21654 -280.13782 282.29388 -279.65173c77.5387 0.24304962 147.67249 31.8275 198.42163 82.73596c25.374573 25.454239 45.902954 55.739456 60.08777 89.353516c7.092346 16.807022 12.598816 34.446243 16.332214 52.729935c0.11663818 0.5713501 0.23162842 1.1433411 0.3447876 1.7159729l0.21868896 1.1247864" fill-rule="evenodd"/><path fill="#434343" stroke="#434343" stroke-width="12.0" stroke-linecap="butt" d="m743.0779 307.50485l16.672852 35.031677l9.745728 -37.552917z" fill-rule="evenodd"/><path fill="#000000" fill-opacity="0.0" d="m198.58267 176.3622l562.8346 0l0 319.27557l-562.8346 0z" fill-rule="evenodd"/><path fill="#434343" d="m423.22153 213.54095q-4.390625 -12.78125 -4.859375 -14.359375q0 0 -5.046875 14.359375l9.90625 0zm4.765625 12.78125l-3.59375 -9.765625l-12.296875 0l-3.71875 9.765625l-3.671875 0l11.828125 -30.875l3.6875 0l11.484375 30.875l-3.71875 0zm6.7590027 0l0 -22.84375l2.90625 0l0.4375 3.265625q1.359375 -1.6875 3.390625 -2.71875q2.03125 -1.03125 4.375 -1.03125q3.96875 0 5.859375 2.21875q1.890625 2.21875 1.890625 6.828125l0 14.28125l-3.46875 0q0 -13.75 -0.03125 -14.71875q-0.078125 -2.921875 -1.171875 -4.265625q-1.09375 -1.359375 -3.65625 -1.359375q-2.6875 0 -4.484375 1.296875q-1.78125 1.28125 -2.328125 3.34375q-0.203125 1.390625 -0.203125 3.203125l0 12.5l-3.515625 0zm31.254395 -2.328125q2.484375 0 4.359375 -1.359375q1.890625 -1.375 2.4375 -3.6875l0 -3.84375q-0.109375 0 -1.265625 0.109375q-1.15625 0.09375 -1.515625 0.109375q-4.515625 0.390625 -6.296875 1.484375q-1.78125 1.078125 -1.78125 3.46875q0 1.84375 1.078125 2.78125q1.09375 0.9375 2.984375 0.9375zm7.5625 2.328125q-0.3125 -1.328125 -0.609375 -2.875q-1.890625 1.890625 -3.5625 2.625q-1.65625 0.734375 -3.90625 0.734375q-3.203125 0 -5.15625 -1.671875q-1.953125 -1.6875 -1.953125 -4.828125q0 -3.5 2.65625 -5.1875q2.65625 -1.6875 7.65625 -2.109375q0.6875 -0.0625 2.0625 -0.171875q1.390625 -0.109375 2.078125 -0.171875l0 -2.03125q0 -2.40625 -1.125 -3.578125q-1.125 -1.171875 -3.53125 -1.171875q-3.375 0 -6.8125 1.671875q-0.109375 -0.25 -0.546875 -1.4375q-0.4375 -1.203125 -0.453125 -1.25q1.515625 -0.859375 3.609375 -1.359375q2.09375 -0.515625 4.265625 -0.515625q4.265625 0 6.140625 1.875q1.890625 1.859375 1.890625 6.328125l0 15.125l-2.703125 0zm14.85379 0.421875q-3.328125 0 -4.71875 -1.796875q-1.390625 -1.796875 -1.390625 -6.234375l0 -24.109375l3.46875 -0.21875l0 22.953125q0 1.421875 0.03125 2.28125q0.03125 0.84375 0.15625 1.671875q0.125 0.828125 0.328125 1.25q0.203125 0.40625 0.59375 0.75q0.40625 0.34375 0.953125 0.46875q0.5625 0.109375 1.375 0.109375q0.65625 0 2.609375 -0.25l0.1875 2.765625q-2.140625 0.359375 -3.59375 0.359375zm2.7887573 -23.265625l3.6875 0l7.203125 19.015625l6.421875 -19.015625l3.6875305 0q-9.2500305 25.453125 -9.5625305 26.234375q-1.4375 3.609375 -3.484375 5.28125q-2.03125 1.6875 -5.375 1.6875q-1.0 0 -2.09375 -0.171875l-0.21875 -2.953125q1.171875 0.078125 1.75 0.078125q2.359375 0 3.578125 -0.875q1.21875 -0.859375 2.171875 -3.234375q0.859375 -2.1875 1.28125 -3.375l-9.046875 -22.671875zm31.020905 23.328125q-2.34375 0 -4.3125 -0.5q-1.96875 -0.5 -3.1875 -1.296875l0.4375 -2.9375q3.46875 1.859375 6.828125 1.859375q5.078125 0 5.21875 -3.59375q0 -1.515625 -1.078125 -2.390625q-1.078125 -0.875 -4.25 -1.953125l-1.71875 -0.609375q-3.0 -1.0 -4.28125 -2.46875q-1.28125 -1.484375 -1.3125 -3.6875q0 -2.6875 2.15625 -4.453125q2.15625 -1.78125 5.90625 -1.78125q3.875 0 7.0625 1.5l-1.015625 2.671875q-3.234375 -1.34375 -6.046875 -1.34375q-2.1875 0 -3.421875 0.875q-1.234375 0.859375 -1.234375 2.421875q0 1.328125 0.890625 2.046875q0.890625 0.703125 3.578125 1.625q0.6875 0.25 1.734375 0.578125q3.453125 1.125 4.890625 2.65625q1.4375 1.53125 1.4375 4.125q-0.046875 3.171875 -2.28125 4.921875q-2.21875 1.734375 -6.0 1.734375zm26.20868 -19.109375q-1.53125 -1.828125 -4.203125 -1.828125q-2.65625 0 -4.34375 1.890625q-1.6875 1.875 -1.984375 5.15625l12.0625 0q0 -3.40625 -1.53125 -5.21875zm-3.515625 19.109375q-4.96875 0 -7.84375 -3.171875q-2.859375 -3.171875 -2.859375 -8.65625q0 -5.3125 2.765625 -8.609375q2.78125 -3.3125 7.296875 -3.375q4.25 0 6.734375 2.90625q2.484375 2.90625 2.484375 7.765625q0 0.25 -0.015625 0.921875q0 0.65625 0 0.953125l-15.6875 0q0.0625 3.890625 2.015625 6.0625q1.953125 2.171875 5.234375 2.171875q3.625 0 7.265625 -1.90625l0.546875 2.8125q-3.484375 2.125 -7.9375 2.125z" fill-rule="nonzero"/><path fill="#434343" d="m457.61664 285.3222l-3.59375 0l0 -30.8125l3.59375 0l0 30.8125zm15.747253 -2.515625q3.4375 0 5.109375 -2.203125q1.6875 -2.21875 1.6875 -6.3125q0 -4.625 -1.625 -6.96875q-1.609375 -2.34375 -5.21875 -2.34375q-1.59375 0 -2.828125 0.6875q-1.21875 0.6875 -1.96875 1.921875q-0.75 1.21875 -1.140625 2.8125q-0.390625 1.59375 -0.390625 3.484375q0 2.671875 0.65625 4.625q0.65625 1.953125 2.109375 3.125q1.46875 1.171875 3.609375 1.171875zm6.859375 -0.796875q-1.125 1.734375 -3.0 2.75q-1.875 1.015625 -4.1875 1.015625q-4.515625 0 -7.078125 -3.21875q-2.5625 -3.21875 -2.5625 -8.75q0 -5.296875 2.59375 -8.546875q2.609375 -3.265625 6.984375 -3.265625q2.265625 0 4.265625 1.0q2.015625 0.984375 3.015625 2.640625l-0.0625 -1.96875l0 -10.0625l3.4375 -0.21875l0 31.9375l-2.953125 0l-0.453125 -3.3125zm26.285492 -30.796875l-6.765625 8.078125l-2.375 0l3.875 -8.078125l5.265625 0zm-3.65625 15.484375q-1.53125 -1.828125 -4.203125 -1.828125q-2.65625 0 -4.34375 1.890625q-1.6875 1.875 -1.984375 5.15625l12.0625 0q0 -3.40625 -1.53125 -5.21875zm-3.515625 19.109375q-4.96875 0 -7.84375 -3.171875q-2.859375 -3.171875 -2.859375 -8.65625q0 -5.3125 2.765625 -8.609375q2.78125 -3.3125 7.296875 -3.375q4.25 0 6.734375 2.90625q2.484375 2.90625 2.484375 7.765625q0 0.25 -0.015625 0.921875q0 0.65625 0 0.953125l-15.6875 0q0.0625 3.890625 2.015625 6.0625q1.953125 2.171875 5.234375 2.171875q3.625 0 7.265625 -1.90625l0.546875 2.8125q-3.484375 2.125 -7.9375 2.125z" fill-rule="nonzero"/><path fill="#434343" d="m323.23233 344.3222l-4.421875 0l-11.78125 -14.703125l-2.8125 2.484375l0 12.21875l-3.625 0l0 -30.8125l3.625 0l0 15.125l13.53125 -15.125l4.515625 0l-12.5 13.875l13.46875 16.9375zm4.738495 -11.375q0 4.0625 1.796875 6.515625q1.8125 2.4375 5.265625 2.4375q3.421875 0 5.15625 -2.4375q1.734375 -2.4375 1.734375 -6.546875q0 -4.1875 -1.71875 -6.59375q-1.71875 -2.40625 -5.234375 -2.40625q-3.40625 0 -5.203125 2.453125q-1.796875 2.453125 -1.796875 6.578125zm17.5625 -0.0625q0 5.3125 -2.84375 8.625q-2.828125 3.296875 -7.828125 3.296875q-4.796875 0 -7.640625 -3.328125q-2.84375 -3.34375 -2.84375 -8.5625q0 -5.34375 2.84375 -8.625q2.859375 -3.296875 7.828125 -3.296875q4.90625 0 7.6875 3.3125q2.796875 3.296875 2.796875 8.578125zm4.9209595 11.4375l0 -22.84375l2.90625 0l0.4375 3.265625q1.359375 -1.6875 3.390625 -2.71875q2.03125 -1.03125 4.375 -1.03125q3.96875 0 5.859375 2.21875q1.890625 2.21875 1.890625 6.828125l0 14.28125l-3.46875 0q0 -13.75 -0.03125 -14.71875q-0.078125 -2.921875 -1.171875 -4.265625q-1.09375 -1.359375 -3.65625 -1.359375q-2.6875 0 -4.484375 1.296875q-1.78125 1.28125 -2.328125 3.34375q-0.203125 1.390625 -0.203125 3.203125l0 12.5l-3.515625 0zm34.316895 0.484375q-5.03125 0 -7.875 -3.265625q-2.84375 -3.28125 -2.84375 -8.5625q0.015625 -5.34375 2.890625 -8.65625q2.890625 -3.328125 7.90625 -3.328125q1.78125 0 3.4375 0.4375q1.65625 0.4375 2.609375 1.140625l-0.953125 2.71875q-2.4375 -1.3125 -5.15625 -1.3125q-3.296875 0 -5.234375 2.421875q-1.921875 2.40625 -1.921875 6.59375q0 4.078125 1.90625 6.46875q1.90625 2.375 5.28125 2.375q2.6875 0 5.5 -1.453125l0.4375 2.765625q-2.28125 1.65625 -5.984375 1.65625zm23.677368 -19.109375q-1.53125 -1.828125 -4.203125 -1.828125q-2.65625 0 -4.34375 1.890625q-1.6875 1.875 -1.984375 5.15625l12.0625 0q0 -3.40625 -1.53125 -5.21875zm-3.515625 19.109375q-4.96875 0 -7.84375 -3.171875q-2.859375 -3.171875 -2.859375 -8.65625q0 -5.3125 2.765625 -8.609375q2.78125 -3.3125 7.296875 -3.375q4.25 0 6.734375 2.90625q2.484375 2.90625 2.484375 7.765625q0 0.25 -0.015625 0.921875q0 0.65625 0 0.953125l-15.6875 0q0.0625 3.890625 2.015625 6.0625q1.953125 2.171875 5.234375 2.171875q3.625 0 7.265625 -1.90625l0.546875 2.8125q-3.484375 2.125 -7.9375 2.125zm13.421448 9.4375l0 -32.765625l3.0625 0l0.328125 3.09375q3.0 -3.578125 7.203125 -3.578125q3.125 0 5.28125 1.5625q2.171875 1.5625 3.203125 4.234375q1.03125 2.65625 1.03125 6.21875q0 3.421875 -1.125 6.078125q-1.125 2.65625 -3.296875 4.1875q-2.171875 1.53125 -5.09375 1.53125q-2.203125 0 -4.140625 -0.984375q-1.9375 -1.0 -3.109375 -2.625q0.125 2.25 0.125 4.375l0 8.4375l-3.46875 0.234375zm10.109375 -12.375q1.59375 0 2.84375 -0.71875q1.25 -0.71875 2.015625 -1.96875q0.765625 -1.25 1.15625 -2.84375q0.40625 -1.59375 0.40625 -3.453125q0 -3.90625 -1.65625 -6.421875q-1.640625 -2.515625 -4.796875 -2.515625q-6.625 0 -6.625 8.5625q0 4.640625 1.546875 7.0q1.5625 2.359375 5.109375 2.359375zm22.186615 2.875q-3.375 0 -4.796875 -1.640625q-1.40625 -1.65625 -1.484375 -5.328125l0 -13.71875l-3.40625 0l0.15625 -2.296875l3.21875 -0.28125l1.1875 -5.234375l2.296875 -0.078125l0 5.3125l6.34375 0l0 2.578125l-6.34375 0l0 13.09375q0 2.609375 0.78125 3.671875q0.796875 1.0625 2.71875 1.0625q0.6875 0 2.96875 -0.328125l0.15625 2.75q-2.484375 0.4375 -3.796875 0.4375zm8.569275 4.125l-3.0 0l14.078125 -35.078125l3.03125 0l-14.109375 35.078125zm22.515991 -4.546875l-3.6875 0l0 -31.15625l10.03125 0q2.296875 0 4.140625 0.484375q1.859375 0.46875 3.296875 1.453125q1.4375 0.96875 2.21875 2.625q0.796875 1.640625 0.796875 3.828125q0 1.8125 -0.328125 3.25q-0.328125 1.421875 -1.140625 2.671875q-0.8125 1.25 -2.125 2.078125q-1.3125 0.8125 -3.375 1.28125q-2.046875 0.46875 -4.75 0.46875q-2.140625 0 -5.078125 -0.265625l0 13.28125zm5.421875 -16.203125q2.046875 0 3.5 -0.390625q1.46875 -0.40625 2.25 -0.984375q0.78125 -0.578125 1.21875 -1.515625q0.453125 -0.9375 0.546875 -1.71875q0.109375 -0.78125 0.109375 -1.890625q0 -2.640625 -1.78125 -3.890625q-1.78125 -1.25 -4.84375 -1.25l-6.421875 0l0 11.59375q4.015625 0.046875 5.421875 0.046875zm25.202484 -6.859375q0.9375 0 1.71875 0.125l-0.125 3.21875q-0.96875 -0.171875 -1.671875 -0.171875q-2.9062805 0 -4.7344055 2.03125q-1.828125 2.03125 -1.828125 5.03125l0 12.828125l-3.46875 0q-0.03125 -21.03125 -0.03125 -22.84375l2.90625 0l0.328125 4.09375q1.1875 -1.9375 3.015625 -3.125q1.828125 -1.1875 3.8906555 -1.1875zm7.418091 11.6875q0 4.0625 1.796875 6.515625q1.8125 2.4375 5.265625 2.4375q3.421875 0 5.15625 -2.4375q1.734375 -2.4375 1.734375 -6.546875q0 -4.1875 -1.71875 -6.59375q-1.71875 -2.40625 -5.234375 -2.40625q-3.40625 0 -5.203125 2.453125q-1.796875 2.453125 -1.796875 6.578125zm17.5625 -0.0625q0 5.3125 -2.84375 8.625q-2.828125 3.296875 -7.828125 3.296875q-4.796875 0 -7.640625 -3.328125q-2.84375 -3.34375 -2.84375 -8.5625q0 -5.34375 2.84375 -8.625q2.859375 -3.296875 7.828125 -3.296875q4.90625 0 7.6875 3.3125q2.796875 3.296875 2.796875 8.578125zm12.202209 11.859375q-3.375 0 -4.796875 -1.640625q-1.40625 -1.65625 -1.484375 -5.328125l0 -13.71875l-3.40625 0l0.15625 -2.296875l3.21875 -0.28125l1.1875 -5.234375l2.296875 -0.078125l0 5.3125l6.34375 0l0 2.578125l-6.34375 0l0 13.09375q0 2.609375 0.78125 3.671875q0.796875 1.0625 2.71875 1.0625q0.6875 0 2.96875 -0.328125l0.15625 2.75q-2.484375 0.4375 -3.796875 0.4375zm9.808899 -11.796875q0 4.0625 1.796875 6.515625q1.8125 2.4375 5.265625 2.4375q3.421875 0 5.15625 -2.4375q1.734375 -2.4375 1.734375 -6.546875q0 -4.1875 -1.71875 -6.59375q-1.71875 -2.40625 -5.234375 -2.40625q-3.40625 0 -5.203125 2.453125q-1.796875 2.453125 -1.796875 6.578125zm17.5625 -0.0625q0 5.3125 -2.84375 8.625q-2.828125 3.296875 -7.828125 3.296875q-4.796875 0 -7.640625 -3.328125q-2.84375 -3.34375 -2.84375 -8.5625q0 -5.34375 2.84375 -8.625q2.859375 -3.296875 7.828125 -3.296875q4.90625 0 7.6875 3.3125q2.796875 3.296875 2.796875 8.578125zm12.202209 11.859375q-3.375 0 -4.796875 -1.640625q-1.40625 -1.65625 -1.484375 -5.328125l0 -13.71875l-3.40625 0l0.15625 -2.296875l3.21875 -0.28125l1.1875 -5.234375l2.296875 -0.078125l0 5.3125l6.34375 0l0 2.578125l-6.34375 0l0 13.09375q0 2.609375 0.78125 3.671875q0.796875 1.0625 2.71875 1.0625q0.6875 0 2.96875 -0.328125l0.15625 2.75q-2.484375 0.4375 -3.796875 0.4375zm4.5849 -23.265625l3.6875 0l7.203125 19.015625l6.421875 -19.015625l3.6875 0q-9.25 25.453125 -9.5625 26.234375q-1.4375 3.609375 -3.484375 5.28125q-2.03125 1.6875 -5.375 1.6875q-1.0 0 -2.09375 -0.171875l-0.21875 -2.953125q1.171875 0.078125 1.75 0.078125q2.359375 0 3.578125 -0.875q1.21875 -0.859375 2.171875 -3.234375q0.859375 -2.1875 1.28125 -3.375l-9.046875 -22.671875zm24.208374 32.765625l0 -32.765625l3.0625 0l0.328125 3.09375q3.0 -3.578125 7.203125 -3.578125q3.125 0 5.28125 1.5625q2.171875 1.5625 3.203125 4.234375q1.03125 2.65625 1.03125 6.21875q0 3.421875 -1.125 6.078125q-1.125 2.65625 -3.296875 4.1875q-2.171875 1.53125 -5.09375 1.53125q-2.203125 0 -4.140625 -0.984375q-1.9375 -1.0 -3.109375 -2.625q0.125 2.25 0.125 4.375l0 8.4375l-3.46875 0.234375zm10.109375 -12.375q1.59375 0 2.84375 -0.71875q1.25 -0.71875 2.015625 -1.96875q0.765625 -1.25 1.15625 -2.84375q0.40625 -1.59375 0.40625 -3.453125q0 -3.90625 -1.65625 -6.421875q-1.640625 -2.515625 -4.796875 -2.515625q-6.625 0 -6.625 8.5625q0 4.640625 1.546875 7.0q1.5625 2.359375 5.109375 2.359375zm28.07721 -16.171875q-1.53125 -1.828125 -4.203125 -1.828125q-2.65625 0 -4.34375 1.890625q-1.6875 1.875 -1.984375 5.15625l12.0625 0q0 -3.40625 -1.53125 -5.21875zm-3.515625 19.109375q-4.96875 0 -7.84375 -3.171875q-2.859375 -3.171875 -2.859375 -8.65625q0 -5.3125 2.765625 -8.609375q2.78125 -3.3125 7.296875 -3.375q4.25 0 6.734375 2.90625q2.484375 2.90625 2.484375 7.765625q0 0.25 -0.015625 0.921875q0 0.65625 0 0.953125l-15.6875 0q0.0625 3.890625 2.015625 6.0625q1.953125 2.171875 5.234375 2.171875q3.625 0 7.265625 -1.90625l0.546875 2.8125q-3.484375 2.125 -7.9375 2.125z" fill-rule="nonzero"/><path fill="#434343" d="m382.99338 403.3222l0 -30.8125l17.65625 0l-0.140625 3.1875l-13.90625 0l0 10.09375l13.21875 0l0 3.140625l-13.21875 0l0 11.203125l14.359375 0l-0.15625 3.1875l-17.8125 0zm29.009796 0l-8.84375 -22.84375l3.71875 0l5.046875 13.578125q0 0 2.078125 5.78125q0.703125 -2.21875 1.953125 -5.75q1.59375 -4.421875 4.921875 -13.609375l3.703125 0l-8.78125 22.84375l-3.796875 0zm21.932251 -2.328125q2.484375 0 4.359375 -1.359375q1.890625 -1.375 2.4375 -3.6875l0 -3.84375q-0.109375 0 -1.265625 0.109375q-1.15625 0.09375 -1.515625 0.109375q-4.515625 0.390625 -6.296875 1.484375q-1.78125 1.078125 -1.78125 3.46875q0 1.84375 1.078125 2.78125q1.09375 0.9375 2.984375 0.9375zm7.5625 2.328125q-0.3125 -1.328125 -0.609375 -2.875q-1.890625 1.890625 -3.5625 2.625q-1.65625 0.734375 -3.90625 0.734375q-3.203125 0 -5.15625 -1.671875q-1.953125 -1.6875 -1.953125 -4.828125q0 -3.5 2.65625 -5.1875q2.65625 -1.6875 7.65625 -2.109375q0.6875 -0.0625 2.0625 -0.171875q1.390625 -0.109375 2.078125 -0.171875l0 -2.03125q0 -2.40625 -1.125 -3.578125q-1.125 -1.171875 -3.53125 -1.171875q-3.375 0 -6.8125 1.671875q-0.109375 -0.25 -0.546875 -1.4375q-0.4375 -1.203125 -0.453125 -1.25q1.515625 -0.859375 3.609375 -1.359375q2.09375 -0.515625 4.265625 -0.515625q4.265625 0 6.140625 1.875q1.890625 1.859375 1.890625 6.328125l0 15.125l-2.703125 0zm14.85379 0.421875q-3.328125 0 -4.71875 -1.796875q-1.390625 -1.796875 -1.390625 -6.234375l0 -24.109375l3.46875 -0.21875l0 22.953125q0 1.421875 0.03125 2.28125q0.03125 0.84375 0.15625 1.671875q0.125 0.828125 0.328125 1.25q0.203125 0.40625 0.59375 0.75q0.40625 0.34375 0.953125 0.46875q0.5625 0.109375 1.375 0.109375q0.65625 0 2.609375 -0.25l0.1875 2.765625q-2.140625 0.359375 -3.59375 0.359375zm4.9137573 -8.046875l0 -15.21875l3.5 0l0 15.265625q0 1.5 0.421875 2.546875q0.4375 1.03125 1.234375 1.609375q0.796875 0.5625 1.8125 0.8125q1.015625 0.25 2.3125 0.25q2.71875 0 4.21875 -1.1875q1.515625 -1.1875 1.515625 -4.03125l0 -15.265625l3.5 0l0 15.21875q0 1.75 -0.5 3.15625q-0.5 1.390625 -1.34375 2.3125q-0.84375 0.921875 -2.03125 1.53125q-1.1875 0.609375 -2.515625 0.875q-1.3125 0.265625 -2.84375 0.265625q-1.484375 0 -2.828125 -0.265625q-1.328125 -0.265625 -2.53125 -0.875q-1.1875 -0.625 -2.0625 -1.546875q-0.859375 -0.9375 -1.359375 -2.328125q-0.5 -1.390625 -0.5 -3.125zm36.87982 -11.0q-1.53125 -1.828125 -4.203125 -1.828125q-2.65625 0 -4.34375 1.890625q-1.6875 1.875 -1.984375 5.15625l12.0625 0q0 -3.40625 -1.53125 -5.21875zm-3.515625 19.109375q-4.96875 0 -7.84375 -3.171875q-2.859375 -3.171875 -2.859375 -8.65625q0 -5.3125 2.765625 -8.609375q2.78125 -3.3125 7.296875 -3.375q4.25 0 6.734375 2.90625q2.484375 2.90625 2.484375 7.765625q0 0.25 -0.015625 0.921875q0 0.65625 0 0.953125l-15.6875 0q0.0625 3.890625 2.015625 6.0625q1.953125 2.171875 5.234375 2.171875q3.625 0 7.265625 -1.90625l0.546875 2.8125q-3.484375 2.125 -7.9375 2.125zm23.655853 -23.546875q0.9375 0 1.71875 0.125l-0.125 3.21875q-0.96875 -0.171875 -1.671875 -0.171875q-2.90625 0 -4.734375 2.03125q-1.8281555 2.03125 -1.8281555 5.03125l0 12.828125l-3.46875 0q-0.03125 -21.03125 -0.03125 -22.84375l2.90625 0l0.328125 4.09375q1.1875305 -1.9375 3.0156555 -3.125q1.828125 -1.1875 3.890625 -1.1875zm9.397278 0.21875l0 22.84375l-3.5 0l0 -22.84375l3.5 0zm0 -8.3125l0 4.125l-3.5 0l0 -4.125l3.5 0zm6.5494385 31.15625l0 -22.84375l2.90625 0l0.4375 3.265625q1.359375 -1.6875 3.390625 -2.71875q2.03125 -1.03125 4.375 -1.03125q3.96875 0 5.859375 2.21875q1.890625 2.21875 1.890625 6.828125l0 14.28125l-3.46875 0q0 -13.75 -0.03125 -14.71875q-0.078125 -2.921875 -1.171875 -4.265625q-1.09375 -1.359375 -3.65625 -1.359375q-2.6875 0 -4.484375 1.296875q-1.78125 1.28125 -2.328125 3.34375q-0.203125 1.390625 -0.203125 3.203125l0 12.5l-3.515625 0zm33.52002 -2.984375q1.78125 0 3.109375 -0.625q1.328125 -0.625 2.078125 -1.71875q0.75 -1.109375 1.109375 -2.453125q0.375 -1.359375 0.375 -2.96875l0 -1.6875q0 -1.65625 -0.375 -3.0625q-0.375 -1.40625 -1.15625 -2.515625q-0.78125 -1.125 -2.09375 -1.75q-1.296875 -0.625 -3.015625 -0.625q-1.4375 0 -2.625 0.546875q-1.171875 0.53125 -1.9375 1.421875q-0.75 0.890625 -1.28125 2.0625q-0.53125 1.171875 -0.765625 2.390625q-0.21875 1.203125 -0.21875 2.4375q0 1.203125 0.25 2.390625q0.25 1.1875 0.78125 2.3125q0.546875 1.125 1.3125 1.96875q0.78125 0.84375 1.9375 1.359375q1.15625 0.515625 2.515625 0.515625zm-5.34375 13.4375l-0.3125 -3.140625l4.25 0q1.765625 0 3.078125 -0.25q1.3125 -0.25 2.1875 -0.828125q0.875 -0.5625 1.40625 -1.265625q0.546875 -0.703125 0.828125 -1.8125q0.28125 -1.109375 0.375 -2.203125q0.09375 -1.09375 0.09375 -2.6875l0 -2.015625q-1.25 1.796875 -2.890625 2.765625q-1.640625 0.96875 -4.1875 0.96875q-1.953125 0 -3.609375 -0.671875q-1.65625 -0.6875 -2.796875 -1.8125q-1.125 -1.125 -1.9375 -2.59375q-0.796875 -1.484375 -1.171875 -3.0625q-0.359375 -1.59375 -0.359375 -3.1875q0 -2.5 0.609375 -4.625q0.625 -2.125 1.828125 -3.796875q1.21875 -1.671875 3.1875 -2.609375q1.96875 -0.953125 4.5 -0.953125q2.25 0 3.921875 0.875q1.6875 0.859375 3.015625 2.640625l0 -3.03125l3.390625 0l0 21.203125q0 1.453125 -0.078125 2.546875q-0.0625 1.09375 -0.34375 2.421875q-0.28125 1.34375 -0.765625 2.296875q-0.46875 0.953125 -1.34375 1.921875q-0.859375 0.96875 -2.0625 1.5625q-1.1875 0.59375 -2.96875 0.96875q-1.765625 0.375 -3.984375 0.375l-3.859375 0z" fill-rule="nonzero"/><path fill="#434343" d="m468.1098 480.69907l0 -9.03125l23.734375 0l0 9.03125l-23.734375 0z" fill-rule="nonzero"/><path fill="#434343" d="m389.82498 563.3222l0 -30.8125l3.625 0l0 27.609375l13.5625 0l-0.125 3.203125l-17.0625 0zm27.21878 -2.328125q2.484375 0 4.359375 -1.359375q1.890625 -1.375 2.4375 -3.6875l0 -3.84375q-0.109375 0 -1.265625 0.109375q-1.15625 0.09375 -1.515625 0.109375q-4.515625 0.390625 -6.296875 1.484375q-1.78125 1.078125 -1.78125 3.46875q0 1.84375 1.078125 2.78125q1.09375 0.9375 2.984375 0.9375zm7.5625 2.328125q-0.3125 -1.328125 -0.609375 -2.875q-1.890625 1.890625 -3.5625 2.625q-1.65625 0.734375 -3.90625 0.734375q-3.203125 0 -5.15625 -1.671875q-1.953125 -1.6875 -1.953125 -4.828125q0 -3.5 2.65625 -5.1875q2.65625 -1.6875 7.65625 -2.109375q0.6875 -0.0625 2.0625 -0.171875q1.390625 -0.109375 2.078125 -0.171875l0 -2.03125q0 -2.40625 -1.125 -3.578125q-1.125 -1.171875 -3.53125 -1.171875q-3.375 0 -6.8125 1.671875q-0.109375 -0.25 -0.546875 -1.4375q-0.4375 -1.203125 -0.453125 -1.25q1.515625 -0.859375 3.609375 -1.359375q2.09375 -0.515625 4.265625 -0.515625q4.265625 0 6.140625 1.875q1.890625 1.859375 1.890625 6.328125l0 15.125l-2.703125 0zm8.713165 0l0 -22.84375l2.90625 0l0.4375 3.265625q1.359375 -1.6875 3.390625 -2.71875q2.03125 -1.03125 4.375 -1.03125q3.96875 0 5.859375 2.21875q1.890625 2.21875 1.890625 6.828125l0 14.28125l-3.46875 0q0 -13.75 -0.03125 -14.71875q-0.078125 -2.921875 -1.171875 -4.265625q-1.09375 -1.359375 -3.65625 -1.359375q-2.6875 0 -4.484375 1.296875q-1.78125 1.28125 -2.328125 3.34375q-0.203125 1.390625 -0.203125 3.203125l0 12.5l-3.515625 0zm34.316895 0.484375q-5.03125 0 -7.875 -3.265625q-2.84375 -3.28125 -2.84375 -8.5625q0.015625 -5.34375 2.890625 -8.65625q2.890625 -3.328125 7.90625 -3.328125q1.78125 0 3.4375 0.4375q1.65625 0.4375 2.609375 1.140625l-0.953125 2.71875q-2.4375 -1.3125 -5.15625 -1.3125q-3.296875 0 -5.234375 2.421875q-1.921875 2.40625 -1.921875 6.59375q0 4.078125 1.90625 6.46875q1.90625 2.375 5.28125 2.375q2.6875 0 5.5 -1.453125l0.4375 2.765625q-2.28125 1.65625 -5.984375 1.65625zm23.677368 -19.109375q-1.53125 -1.828125 -4.203125 -1.828125q-2.65625 0 -4.34375 1.890625q-1.6875 1.875 -1.984375 5.15625l12.0625 0q0 -3.40625 -1.53125 -5.21875zm-3.515625 19.109375q-4.96875 0 -7.84375 -3.171875q-2.859375 -3.171875 -2.859375 -8.65625q0 -5.3125 2.765625 -8.609375q2.78125 -3.3125 7.296875 -3.375q4.25 0 6.734375 2.90625q2.484375 2.90625 2.484375 7.765625q0 0.25 -0.015625 0.921875q0 0.65625 0 0.953125l-15.6875 0q0.0625 3.890625 2.015625 6.0625q1.953125 2.171875 5.234375 2.171875q3.625 0 7.265625 -1.90625l0.546875 2.8125q-3.484375 2.125 -7.9375 2.125zm23.655823 -23.546875q0.9375305 0 1.7187805 0.125l-0.125 3.21875q-0.96875 -0.171875 -1.6719055 -0.171875q-2.90625 0 -4.734375 2.03125q-1.828125 2.03125 -1.828125 5.03125l0 12.828125l-3.46875 0q-0.03125 -21.03125 -0.03125 -22.84375l2.90625 0l0.328125 4.09375q1.1875 -1.9375 3.015625 -3.125q1.828125 -1.1875 3.890625 -1.1875zm9.397247 0.21875l0 22.84375l-3.5 0l0 -22.84375l3.5 0zm0 -8.3125l0 4.125l-3.5 0l0 -4.125l3.5 0zm6.5494995 31.15625l0 -22.84375l2.90625 0l0.4375 3.265625q1.359375 -1.6875 3.390625 -2.71875q2.03125 -1.03125 4.375 -1.03125q3.96875 0 5.859375 2.21875q1.890625 2.21875 1.890625 6.828125l0 14.28125l-3.46875 0q0 -13.75 -0.03125 -14.71875q-0.078125 -2.921875 -1.171875 -4.265625q-1.09375 -1.359375 -3.65625 -1.359375q-2.6875 0 -4.484375 1.296875q-1.78125 1.28125 -2.328125 3.34375q-0.203125 1.390625 -0.203125 3.203125l0 12.5l-3.515625 0zm33.52002 -2.984375q1.78125 0 3.109375 -0.625q1.328125 -0.625 2.078125 -1.71875q0.75 -1.109375 1.109375 -2.453125q0.375 -1.359375 0.375 -2.96875l0 -1.6875q0 -1.65625 -0.375 -3.0625q-0.375 -1.40625 -1.15625 -2.515625q-0.78125 -1.125 -2.09375 -1.75q-1.296875 -0.625 -3.015625 -0.625q-1.4375 0 -2.625 0.546875q-1.171875 0.53125 -1.9375 1.421875q-0.75 0.890625 -1.28125 2.0625q-0.53125 1.171875 -0.765625 2.390625q-0.21875 1.203125 -0.21875 2.4375q0 1.203125 0.25 2.390625q0.25 1.1875 0.78125 2.3125q0.546875 1.125 1.3125 1.96875q0.78125 0.84375 1.9375 1.359375q1.15625 0.515625 2.515625 0.515625zm-5.34375 13.4375l-0.3125 -3.140625l4.25 0q1.765625 0 3.078125 -0.25q1.3125 -0.25 2.1875 -0.828125q0.875 -0.5625 1.40625 -1.265625q0.546875 -0.703125 0.828125 -1.8125q0.28125 -1.109375 0.375 -2.203125q0.09375 -1.09375 0.09375 -2.6875l0 -2.015625q-1.25 1.796875 -2.890625 2.765625q-1.640625 0.96875 -4.1875 0.96875q-1.953125 0 -3.609375 -0.671875q-1.65625 -0.6875 -2.796875 -1.8125q-1.125 -1.125 -1.9375 -2.59375q-0.796875 -1.484375 -1.171875 -3.0625q-0.359375 -1.59375 -0.359375 -3.1875q0 -2.5 0.609375 -4.625q0.625 -2.125 1.828125 -3.796875q1.21875 -1.671875 3.1875 -2.609375q1.96875 -0.953125 4.5 -0.953125q2.25 0 3.921875 0.875q1.6875 0.859375 3.015625 2.640625l0 -3.03125l3.390625 0l0 21.203125q0 1.453125 -0.078125 2.546875q-0.0625 1.09375 -0.34375 2.421875q-0.28125 1.34375 -0.765625 2.296875q-0.46875 0.953125 -1.34375 1.921875q-0.859375 0.96875 -2.0625 1.5625q-1.1875 0.59375 -2.96875 0.96875q-1.765625 0.375 -3.984375 0.375l-3.859375 0z" fill-rule="nonzero"/></g></svg>