<svg version="1.1" viewBox="0.0 0.0 960.0 720.0" fill="none" stroke="none" stroke-linecap="square" stroke-miterlimit="10" xmlns:xlink="http://www.w3.org/1999/xlink" xmlns="http://www.w3.org/2000/svg"><clipPath id="p.0"><path d="m0 0l960.0 0l0 720.0l-960.0 0l0 -720.0z" clip-rule="nonzero"/></clipPath><g clip-path="url(#p.0)"><path fill="#000000" fill-opacity="0.0" d="m0 0l960.0 0l0 720.0l-960.0 0z" fill-rule="evenodd"/><path fill="#000000" fill-opacity="0.0" d="m256.66666 553.6142l474.70865 -1.1339111" fill-rule="evenodd"/><path stroke="#ff3e00" stroke-width="4.0" stroke-linejoin="round" stroke-linecap="butt" d="m256.66666 553.6142l450.70877 -1.0765381" fill-rule="evenodd"/><path fill="#ff3e00" stroke="#ff3e00" stroke-width="4.0" stroke-linecap="butt" d="m707.3912 559.14453l18.136536 -6.6502686l-18.16809 -6.5635376z" fill-rule="evenodd"/><path fill="#000000" fill-opacity="0.0" d="m58.774277 280.0l0 0c0 -23.413391 18.980309 -42.393707 42.3937 -42.393707l0 0c11.243507 0 22.026512 4.4664764 29.976875 12.41684c7.950363 7.950348 12.416824 18.733368 12.416824 29.976868l0 0c0 23.413391 -18.9803 42.393707 -42.3937 42.393707l0 0c-23.413391 0 -42.3937 -18.980316 -42.3937 -42.393707z" fill-rule="evenodd"/><path stroke="#ff3e00" stroke-width="8.0" stroke-linejoin="round" stroke-linecap="butt" d="m58.774277 280.0l0 0c0 -23.413391 18.980309 -42.393707 42.3937 -42.393707l0 0c11.243507 0 22.026512 4.4664764 29.976875 12.41684c7.950363 7.950348 12.416824 18.733368 12.416824 29.976868l0 0c0 23.413391 -18.9803 42.393707 -42.3937 42.393707l0 0c-23.413391 0 -42.3937 -18.980316 -42.3937 -42.393707z" fill-rule="evenodd"/><path fill="#000000" fill-opacity="0.0" d="m352.47507 280.0l0 0c0 -43.382614 35.16855 -78.55118 78.55118 -78.55118l0 0c20.833069 0 40.812866 8.275894 55.544067 23.00711c14.731201 14.731201 23.00711 34.711 23.00711 55.544067l0 0c0 43.38263 -35.16855 78.55118 -78.55118 78.55118l0 0c-43.38263 0 -78.55118 -35.16855 -78.55118 -78.55118z" fill-rule="evenodd"/><path stroke="#ff3e00" stroke-width="8.0" stroke-linejoin="round" stroke-linecap="butt" d="m352.47507 280.0l0 0c0 -43.382614 35.16855 -78.55118 78.55118 -78.55118l0 0c20.833069 0 40.812866 8.275894 55.544067 23.00711c14.731201 14.731201 23.00711 34.711 23.00711 55.544067l0 0c0 43.38263 -35.16855 78.55118 -78.55118 78.55118l0 0c-43.38263 0 -78.55118 -35.16855 -78.55118 -78.55118z" fill-rule="evenodd"/><path fill="#000000" fill-opacity="0.0" d="m718.4908 280.0l0 0c0 -52.436615 42.5083 -94.944885 94.944885 -94.944885l0 0c25.18097 0 49.330566 10.003098 67.13617 27.808716c17.805664 17.805618 27.808716 41.955215 27.808716 67.13617l0 0c0 52.436615 -42.50824 94.944885 -94.944885 94.944885l0 0c-52.436584 0 -94.944885 -42.50827 -94.944885 -94.944885z" fill-rule="evenodd"/><path stroke="#ff3e00" stroke-width="8.0" stroke-linejoin="round" stroke-linecap="butt" d="m718.4908 280.0l0 0c0 -52.436615 42.5083 -94.944885 94.944885 -94.944885l0 0c25.18097 0 49.330566 10.003098 67.13617 27.808716c17.805664 17.805618 27.808716 41.955215 27.808716 67.13617l0 0c0 52.436615 -42.50824 94.944885 -94.944885 94.944885l0 0c-52.436584 0 -94.944885 -42.50827 -94.944885 -94.944885z" fill-rule="evenodd"/><path fill="#000000" fill-opacity="0.0" d="m535.4829 280.0l0 0c0 -43.382614 35.16858 -78.55118 78.55121 -78.55118l0 0c20.833069 0 40.812866 8.275894 55.544067 23.00711c14.731201 14.731201 23.007141 34.711 23.007141 55.544067l0 0c0 43.38263 -35.16858 78.55118 -78.55121 78.55118l0 0c-43.38263 0 -78.55121 -35.16855 -78.55121 -78.55118z" fill-rule="evenodd"/><path stroke="#ff3e00" stroke-width="8.0" stroke-linejoin="round" stroke-linecap="butt" d="m535.4829 280.0l0 0c0 -43.382614 35.16858 -78.55118 78.55121 -78.55118l0 0c20.833069 0 40.812866 8.275894 55.544067 23.00711c14.731201 14.731201 23.007141 34.711 23.007141 55.544067l0 0c0 43.38263 -35.16858 78.55118 -78.55121 78.55118l0 0c-43.38263 0 -78.55121 -35.16855 -78.55121 -78.55118z" fill-rule="evenodd"/><path fill="#000000" fill-opacity="0.0" d="m169.4672 280.0l0 0c0 -43.382614 35.168564 -78.55118 78.55118 -78.55118l0 0c20.833069 0 40.812866 8.275894 55.544067 23.00711c14.731201 14.731201 23.00711 34.711 23.00711 55.544067l0 0c0 43.38263 -35.16855 78.55118 -78.55118 78.55118l0 0c-43.382614 0 -78.55118 -35.16855 -78.55118 -78.55118z" fill-rule="evenodd"/><path stroke="#ff3e00" stroke-width="8.0" stroke-linejoin="round" stroke-linecap="butt" d="m169.4672 280.0l0 0c0 -43.382614 35.168564 -78.55118 78.55118 -78.55118l0 0c20.833069 0 40.812866 8.275894 55.544067 23.00711c14.731201 14.731201 23.00711 34.711 23.00711 55.544067l0 0c0 43.38263 -35.16855 78.55118 -78.55118 78.55118l0 0c-43.382614 0 -78.55118 -35.16855 -78.55118 -78.55118z" fill-rule="evenodd"/><path fill="#000000" fill-opacity="0.0" d="m101.16798 322.3937l0 80.25195" fill-rule="evenodd"/><path stroke="#ff3e00" stroke-width="1.0" stroke-linejoin="round" stroke-linecap="butt" d="m101.16798 322.3937l0 80.25195" fill-rule="evenodd"/><path fill="#000000" fill-opacity="0.0" d="m38.44357 413.37555l0 0c0 -5.9317627 4.808628 -10.740387 10.740372 -10.740387l103.96808 0c2.8485107 0 5.580368 1.1315918 7.594589 3.1457825c2.014206 2.0142212 3.1457825 4.746063 3.1457825 7.5946045l0 42.960205c0 5.931732 -4.8086395 10.740356 -10.740372 10.740356l-103.96808 0c-5.9317436 0 -10.740372 -4.8086243 -10.740372 -10.740356z" fill-rule="evenodd"/><path stroke="#ff3e00" stroke-width="1.0" stroke-linejoin="round" stroke-linecap="butt" d="m38.44357 413.37555l0 0c0 -5.9317627 4.808628 -10.740387 10.740372 -10.740387l103.96808 0c2.8485107 0 5.580368 1.1315918 7.594589 3.1457825c2.014206 2.0142212 3.1457825 4.746063 3.1457825 7.5946045l0 42.960205c0 5.931732 -4.8086395 10.740356 -10.740372 10.740356l-103.96808 0c-5.9317436 0 -10.740372 -4.8086243 -10.740372 -10.740356z" fill-rule="evenodd"/><path fill="#ff3e00" d="m66.13282 443.39563l0 -17.171875l3.171875 0l0 17.171875l-3.171875 0zm6.9765625 0l0 -17.171875l3.375 0q0.90625 1.4375 3.703125 5.78125q2.8125 4.328125 3.421875 5.265625q0.171875 0.265625 0.59375 0.90625q0.4375 0.640625 0.609375 0.90625q-0.078125 -4.015625 -0.078125 -4.171875l0 -8.6875l2.890625 0l0 17.171875l-3.421875 0l-7.75 -12.078125l-0.5625 -0.921875q0.09375 3.09375 0.09375 4.34375l0 8.65625l-2.875 0zm21.523438 0l0 -14.625l-5.0 0l0 -2.546875l13.171875 0l0 2.546875l-4.984375 0l0 14.625l-3.1875 0zm9.9296875 0l0 -17.21875l6.375 0q1.296875 0 2.25 0.125q0.953125 0.109375 1.8125 0.421875q0.859375 0.3125 1.390625 0.84375q0.546875 0.515625 0.84375 1.375q0.3125 0.84375 0.3125 2.0q0 3.421875 -3.09375 4.5q0.625 0.71875 1.5625 2.65625l2.5625 5.296875l-3.46875 0l-2.015625 -4.484375q-1.125 -2.421875 -1.40625 -2.859375q-0.1875 -0.015625 -1.3125 -0.015625l-2.671875 -0.03125l0 7.390625l-3.140625 0zm6.65625 -9.65625q1.828125 0 2.625 -0.640625q0.796875 -0.65625 0.796875 -2.109375q0 -1.265625 -0.8125 -1.859375q-0.8125 -0.59375 -2.46875 -0.59375l-3.65625 0l0 5.1875q0.1875 0 1.75 0.015625q1.578125 0 1.765625 0zm13.6328125 5.6875q1.28125 1.625 3.7656174 1.625q2.5 0 3.765625 -1.625q1.28125 -1.625 1.28125 -4.59375q0 -3.0 -1.28125 -4.640625q-1.265625 -1.65625 -3.75 -1.65625q-2.4843674 0 -3.7812424 1.65625q-1.28125 1.65625 -1.28125 4.640625q0 2.953125 1.28125 4.59375zm3.7656174 4.21875q-3.8749924 0 -6.1249924 -2.34375q-2.25 -2.359375 -2.25 -6.5q0 -4.15625 2.25 -6.484375q2.25 -2.34375 6.1249924 -2.34375q3.890625 0 6.125 2.34375q2.234375 2.34375 2.234375 6.5q0 4.109375 -2.25 6.46875q-2.25 2.359375 -6.109375 2.359375z" fill-rule="nonzero"/><path fill="#000000" fill-opacity="0.0" d="m248.01837 201.44882l0 -82.48819" fill-rule="evenodd"/><path stroke="#ff3e00" stroke-width="1.0" stroke-linejoin="round" stroke-linecap="butt" d="m248.01837 201.44882l0 -82.48819" fill-rule="evenodd"/><path fill="#000000" fill-opacity="0.0" d="m185.29396 65.24431l0 0c0 -5.9317436 4.8086243 -10.740372 10.740372 -10.740372l103.96808 0c2.8485107 0 5.5803833 1.1315727 7.594574 3.1457825c2.0142212 2.0142097 3.1457825 4.746067 3.1457825 7.594589l0 42.960197c0 5.9317474 -4.8086243 10.740379 -10.740356 10.740379l-103.96808 0c-5.9317474 0 -10.740372 -4.808632 -10.740372 -10.740379z" fill-rule="evenodd"/><path stroke="#ff3e00" stroke-width="1.0" stroke-linejoin="round" stroke-linecap="butt" d="m185.29396 65.24431l0 0c0 -5.9317436 4.8086243 -10.740372 10.740372 -10.740372l103.96808 0c2.8485107 0 5.5803833 1.1315727 7.594574 3.1457825c2.0142212 2.0142097 3.1457825 4.746067 3.1457825 7.594589l0 42.960197c0 5.9317474 -4.8086243 10.740379 -10.740356 10.740379l-103.96808 0c-5.9317474 0 -10.740372 -4.808632 -10.740372 -10.740379z" fill-rule="evenodd"/><path fill="#ff3e00" d="m225.48712 95.264404l6.3125 -17.1875l3.453125 0l6.234375 17.1875l-3.265625 0l-1.703125 -4.859375l-6.0 0l-1.71875 4.859375l-3.3125 0zm5.828125 -7.21875l4.40625 0q-2.109375 -6.765625 -2.171875 -6.984375l-2.234375 6.984375zm11.7890625 7.21875l0 -17.21875l5.71875 0q2.03125 0 3.46875 0.53125q1.453125 0.515625 2.28125 1.6875q0.84375 1.171875 0.84375 2.9375q0 1.234375 -0.328125 2.1875q-0.3125 0.953125 -1.046875 1.734375q-0.71875 0.78125 -2.03125 1.203125q-1.3125 0.421875 -3.1875 0.421875q-1.59375 0 -2.578125 -0.09375l0 6.609375l-3.140625 0zm5.390625 -8.8125q0.96875 0 1.6875 -0.1875q0.71875 -0.1875 1.125 -0.484375q0.40625 -0.296875 0.640625 -0.71875q0.25 -0.4375 0.3125 -0.84375q0.078125 -0.40625 0.078125 -0.90625q0 -1.421875 -0.921875 -2.15625q-0.90625 -0.734375 -2.5625 -0.734375l-2.609375 0l0 6.0q0.140625 0.03125 2.25 0.03125zm9.199219 8.8125l0 -17.21875l5.71875 0q2.03125 0 3.46875 0.53125q1.453125 0.515625 2.28125 1.6875q0.84375 1.171875 0.84375 2.9375q0 1.234375 -0.328125 2.1875q-0.3125 0.953125 -1.046875 1.734375q-0.71875 0.78125 -2.03125 1.203125q-1.3125 0.421875 -3.1875 0.421875q-1.59375 0 -2.578125 -0.09375l0 6.609375l-3.140625 0zm5.390625 -8.8125q0.96875 0 1.6875 -0.1875q0.71875 -0.1875 1.125 -0.484375q0.40625 -0.296875 0.640625 -0.71875q0.25 -0.4375 0.3125 -0.84375q0.078125 -0.40625 0.078125 -0.90625q0 -1.421875 -0.921875 -2.15625q-0.90625 -0.734375 -2.5625 -0.734375l-2.609375 0l0 6.0q0.140625 0.03125 2.25 0.03125z" fill-rule="nonzero"/><path fill="#000000" fill-opacity="0.0" d="m431.02625 358.55118l0 44.094482" fill-rule="evenodd"/><path stroke="#ff3e00" stroke-width="1.0" stroke-linejoin="round" stroke-linecap="butt" d="m431.02625 358.55118l0 44.094482" fill-rule="evenodd"/><path fill="#000000" fill-opacity="0.0" d="m368.30185 413.37555l0 0c0 -5.9317627 4.8086243 -10.740387 10.740356 -10.740387l103.96808 0c2.8485107 0 5.5803833 1.1315918 7.5946045 3.1457825c2.0141907 2.0142212 3.1457825 4.746063 3.1457825 7.5946045l0 42.960205c0 5.931732 -4.808655 10.740356 -10.740387 10.740356l-103.96808 0c-5.931732 0 -10.740356 -4.8086243 -10.740356 -10.740356z" fill-rule="evenodd"/><path stroke="#ff3e00" stroke-width="1.0" stroke-linejoin="round" stroke-linecap="butt" d="m368.30185 413.37555l0 0c0 -5.9317627 4.8086243 -10.740387 10.740356 -10.740387l103.96808 0c2.8485107 0 5.5803833 1.1315918 7.5946045 3.1457825c2.0141907 2.0142212 3.1457825 4.746063 3.1457825 7.5946045l0 42.960205c0 5.931732 -4.808655 10.740356 -10.740387 10.740356l-103.96808 0c-5.931732 0 -10.740356 -4.8086243 -10.740356 -10.740356z" fill-rule="evenodd"/><path fill="#ff3e00" d="m398.25867 443.39563l6.3125 -17.1875l3.453125 0l6.234375 17.1875l-3.265625 0l-1.703125 -4.859375l-6.0 0l-1.71875 4.859375l-3.3125 0zm5.828125 -7.21875l4.40625 0q-2.109375 -6.765625 -2.171875 -6.984375l-2.234375 6.984375zm18.550781 7.46875q-3.375 0 -5.125 -1.6875q-1.75 -1.6875 -1.75 -4.734375l0 -11.0l3.1875 0l0 10.71875q0 2.15625 0.875 3.140625q0.875 0.984375 2.859375 0.984375q1.96875 0 2.84375 -0.984375q0.875 -1.0 0.875 -3.140625l0 -10.71875l3.171875 0l0 11.015625q0 3.03125 -1.78125 4.71875q-1.78125 1.6875 -5.15625 1.6875zm13.8125 -0.25l0 -14.625l-5.0 0l0 -2.546875l13.171875 0l0 2.546875l-4.984375 0l0 14.625l-3.1875 0zm14.0234375 -3.96875q1.28125 1.625 3.765625 1.625q2.5 0 3.765625 -1.625q1.28125 -1.625 1.28125 -4.59375q0 -3.0 -1.28125 -4.640625q-1.265625 -1.65625 -3.75 -1.65625q-2.484375 0 -3.78125 1.65625q-1.28125 1.65625 -1.28125 4.640625q0 2.953125 1.28125 4.59375zm3.765625 4.21875q-3.875 0 -6.125 -2.34375q-2.25 -2.359375 -2.25 -6.5q0 -4.15625 2.25 -6.484375q2.25 -2.34375 6.125 -2.34375q3.890625 0 6.125 2.34375q2.234375 2.34375 2.234375 6.5q0 4.109375 -2.25 6.46875q-2.25 2.359375 -6.109375 2.359375z" fill-rule="nonzero"/><path fill="#000000" fill-opacity="0.0" d="m813.43567 374.9449l0 34.299194" fill-rule="evenodd"/><path stroke="#ff3e00" stroke-width="1.0" stroke-linejoin="round" stroke-linecap="butt" d="m813.43567 374.9449l0 34.299194" fill-rule="evenodd"/><path fill="#000000" fill-opacity="0.0" d="m742.8845 419.98578l0 0c0 -5.931732 4.8085938 -10.740387 10.740356 -10.740387l119.62164 0c2.8485107 0 5.5803833 1.1315918 7.5945435 3.1457825c2.0142212 2.0142212 3.145813 4.7460938 3.145813 7.5946045l0 42.960205c0 5.931732 -4.808655 10.740356 -10.740356 10.740356l-119.62164 0c-5.9317627 0 -10.740356 -4.8086243 -10.740356 -10.740356z" fill-rule="evenodd"/><path stroke="#ff3e00" stroke-width="1.0" stroke-linejoin="round" stroke-linecap="butt" d="m742.8845 419.98578l0 0c0 -5.931732 4.8085938 -10.740387 10.740356 -10.740387l119.62164 0c2.8485107 0 5.5803833 1.1315918 7.5945435 3.1457825c2.0142212 2.0142212 3.145813 4.7460938 3.145813 7.5946045l0 42.960205c0 5.931732 -4.808655 10.740356 -10.740356 10.740356l-119.62164 0c-5.9317627 0 -10.740356 -4.8086243 -10.740356 -10.740356z" fill-rule="evenodd"/><path fill="#ff3e00" d="m759.1271 450.0059l0 -17.171875l10.40625 0l-0.140625 2.515625l-7.09375 0l0 4.4375l6.75 0l0 2.515625l-6.75 0l0 5.171875l7.359375 0l-0.109375 2.53125l-10.421875 0zm13.484375 0l0 -17.171875l3.1875 0l0 7.734375q0.828125 -1.09375 3.390625 -4.109375q2.578125 -3.015625 3.078125 -3.625l3.765625 0l-6.5 7.71875l6.90625 9.453125l-3.734375 0l-5.59375 -7.703125l-1.3125 1.109375l0 6.59375l-3.1875 0zm20.625 0.234375q-3.109375 0 -5.5625 -1.4375l0.765625 -2.515625q1.109375 0.609375 2.390625 0.984375q1.296875 0.375 2.53125 0.375q1.515625 0 2.28125 -0.640625q0.78125 -0.65625 0.78125 -1.875q0 -1.625 -2.15625 -2.234375q-0.15625 -0.046875 -0.859375 -0.25q-0.703125 -0.21875 -1.328125 -0.40625q-0.609375 -0.1875 -0.875 -0.296875q-3.453125 -1.21875 -3.453125 -4.546875q0 -2.328125 1.65625 -3.59375q1.65625 -1.265625 4.40625 -1.265625q3.09375 0 5.34375 1.265625l-0.953125 2.328125q-2.296875 -1.03125 -4.265625 -1.03125q-1.421875 0 -2.140625 0.5q-0.71875 0.5 -0.765625 1.65625q0 1.421875 1.421875 1.859375q0.28125 0.109375 1.375 0.46875q1.109375 0.34375 1.4375 0.453125q2.34375 0.765625 3.359375 1.921875q1.015625 1.140625 1.015625 3.1875q0 2.453125 -1.734375 3.78125q-1.734375 1.3125 -4.671875 1.3125zm7.2304688 -0.234375l6.3125 -17.1875l3.453125 0l6.234375 17.1875l-3.265625 0l-1.703125 -4.859375l-6.0 0l-1.71875 4.859375l-3.3125 0zm5.828125 -7.21875l4.40625 0q-2.109375 -6.765625 -2.171875 -6.984375l-2.234375 6.984375zm11.8828125 7.21875l0 -17.171875l3.75 0l5.1875 12.40625l5.21875 -12.40625l3.703125 0l0 17.171875l-2.921875 0l0 -8.484375l0.09375 -4.859375l-0.4375 1.28125l-4.390625 10.890625l-2.71875 0l-4.296875 -10.953125l-0.4375 -1.28125l0.109375 4.96875l0 8.4375l-2.859375 0zm21.574219 0l0 -17.171875l10.40625 0l-0.140625 2.515625l-7.09375 0l0 4.4375l6.75 0l0 2.515625l-6.75 0l0 5.171875l7.359375 0l-0.109375 2.53125l-10.421875 0zm13.5 0l0 -17.171875l3.375 0q0.90625 1.4375 3.703125 5.78125q2.8125 4.328125 3.421875 5.265625q0.171875 0.265625 0.59375 0.90625q0.4375 0.640625 0.609375 0.90625q-0.078125 -4.015625 -0.078125 -4.171875l0 -8.6875l2.890625 0l0 17.171875l-3.421875 0l-7.75 -12.078125l-0.5625 -0.921875q0.09375 3.09375 0.09375 4.34375l0 8.65625l-2.875 0z" fill-rule="nonzero"/><path fill="#000000" fill-opacity="0.0" d="m614.0341 201.44882l0 -82.48819" fill-rule="evenodd"/><path stroke="#ff3e00" stroke-width="1.0" stroke-linejoin="round" stroke-linecap="butt" d="m614.0341 201.44882l0 -82.48819" fill-rule="evenodd"/><path fill="#000000" fill-opacity="0.0" d="m551.3097 65.24431l0 0c0 -5.9317436 4.808655 -10.740372 10.7404175 -10.740372l103.96802 0c2.8485718 0 5.5803833 1.1315727 7.5946045 3.1457825c2.0142212 2.0142097 3.145813 4.746067 3.145813 7.594589l0 42.960197c0 5.9317474 -4.808655 10.740379 -10.7404175 10.740379l-103.96802 0c-5.9317627 0 -10.7404175 -4.808632 -10.7404175 -10.740379z" fill-rule="evenodd"/><path stroke="#ff3e00" stroke-width="1.0" stroke-linejoin="round" stroke-linecap="butt" d="m551.3097 65.24431l0 0c0 -5.9317436 4.808655 -10.740372 10.7404175 -10.740372l103.96802 0c2.8485718 0 5.5803833 1.1315727 7.5946045 3.1457825c2.0142212 2.0142097 3.145813 4.746067 3.145813 7.594589l0 42.960197c0 5.9317474 -4.808655 10.740379 -10.7404175 10.740379l-103.96802 0c-5.9317627 0 -10.7404175 -4.808632 -10.7404175 -10.740379z" fill-rule="evenodd"/><path fill="#ff3e00" d="m593.6513 95.264404l0 -17.21875l6.375 0q1.296875 0 2.25 0.125q0.953125 0.109375 1.8125 0.421875q0.859375 0.3125 1.390625 0.84375q0.546875 0.515625 0.84375 1.375q0.3125 0.84375 0.3125 2.0q0 3.421875 -3.09375 4.5q0.625 0.71875 1.5625 2.65625l2.5625 5.296875l-3.46875 0l-2.015625 -4.484375q-1.125 -2.421875 -1.40625 -2.859375q-0.1875 -0.015625 -1.3125 -0.015625l-2.671875 -0.03125l0 7.390625l-3.140625 0zm6.65625 -9.65625q1.828125 0 2.625 -0.640625q0.796875 -0.65625 0.796875 -2.109375q0 -1.265625 -0.8125 -1.859375q-0.8125 -0.59375 -2.46875 -0.59375l-3.65625 0l0 5.1875q0.1875 0 1.75 0.015625q1.578125 0 1.765625 0zm9.644531 9.65625l0 -17.171875l10.40625 0l-0.140625 2.515625l-7.09375 0l0 4.4375l6.75 0l0 2.515625l-6.75 0l0 5.171875l7.359375 0l-0.109375 2.53125l-10.421875 0zm13.40625 0l0 -17.21875l5.71875 0q2.03125 0 3.46875 0.53125q1.453125 0.515625 2.28125 1.6875q0.84375 1.171875 0.84375 2.9375q0 1.234375 -0.328125 2.1875q-0.3125 0.953125 -1.046875 1.734375q-0.71875 0.78125 -2.03125 1.203125q-1.3125 0.421875 -3.1875 0.421875q-1.59375 0 -2.578125 -0.09375l0 6.609375l-3.140625 0zm5.390625 -8.8125q0.96875 0 1.6875 -0.1875q0.71875 -0.1875 1.125 -0.484375q0.40625 -0.296875 0.640625 -0.71875q0.25 -0.4375 0.3125 -0.84375q0.078125 -0.40625 0.078125 -0.90625q0 -1.421875 -0.921875 -2.15625q-0.90625 -0.734375 -2.5625 -0.734375l-2.609375 0l0 6.0q0.140625 0.03125 2.25 0.03125z" fill-rule="nonzero"/><path fill="#000000" fill-opacity="0.0" d="m56.711285 531.6755l175.2126 0l0 27.684998l-175.2126 0z" fill-rule="evenodd"/><path fill="#ff3e00" d="m67.14879 558.59546l0 -13.34375l2.46875 0l0 11.375l5.578125 0l-0.0625 1.96875l-7.984375 0zm8.662521 0l7.6875 -13.484375l9.1875 0l-0.125 1.78125l-5.53125 0l0.296875 3.953125l5.0 0l0 1.78125l-4.8125 0l0.34375 4.1875l5.15625 0l-0.125 1.78125l-7.40625 0l-0.28125 -3.421875l-4.765625 0l-1.875 3.421875l-2.75 0zm5.46875 -5.203125l3.78125 0l-0.453125 -6.046875l-3.328125 6.046875zm13.972794 5.203125l0 -13.375l4.953125 0q1.0 0 1.734375 0.09375q0.75 0.078125 1.421875 0.328125q0.671875 0.234375 1.078125 0.65625q0.421875 0.40625 0.65625 1.0625q0.25 0.65625 0.25 1.5625q0 2.65625 -2.40625 3.5q0.484375 0.546875 1.21875 2.046875l1.984375 4.125l-2.703125 0l-1.5625 -3.484375q-0.875 -1.875 -1.078125 -2.234375q-0.15625 0 -1.03125 0l-2.078125 -0.015625l0 5.734375l-2.4375 0zm5.171875 -7.5q1.421875 0 2.03125 -0.5q0.625 -0.515625 0.625 -1.640625q0 -0.984375 -0.640625 -1.4375q-0.625 -0.46875 -1.90625 -0.46875l-2.84375 0l0 4.03125q0.140625 0 1.359375 0.015625q1.21875 0 1.375 0zm7.4889984 7.5l0 -13.34375l8.09375 0l-0.109375 1.953125l-5.515625 0l0 3.453125l5.25 0l0 1.953125l-5.25 0l0 4.015625l5.71875 0l-0.078125 1.96875l-8.109375 0zm10.431641 0l0 -13.375l4.953125 0q1.0 0 1.734375 0.09375q0.75 0.078125 1.421875 0.328125q0.671875 0.234375 1.078125 0.65625q0.421875 0.40625 0.65625 1.0625q0.25 0.65625 0.25 1.5625q0 2.65625 -2.40625 3.5q0.484375 0.546875 1.21875 2.046875l1.984375 4.125l-2.703125 0l-1.5625 -3.484375q-0.875 -1.875 -1.078125 -2.234375q-0.15625 0 -1.03125 0l-2.078125 -0.015625l0 5.734375l-2.4375 0zm5.171875 -7.5q1.421875 0 2.03125 -0.5q0.625 -0.515625 0.625 -1.640625q0 -0.984375 -0.640625 -1.4375q-0.625 -0.46875 -1.90625 -0.46875l-2.84375 0l0 4.03125q0.140625 0 1.359375 0.015625q1.21875 0 1.375 0zm11.339264 7.6875q-2.421875 0 -4.328125 -1.109375l0.59375 -1.96875q0.859375 0.484375 1.859375 0.78125q1.015625 0.28125 1.96875 0.28125q1.171875 0 1.765625 -0.5q0.609375 -0.515625 0.609375 -1.46875q0 -1.25 -1.671875 -1.734375q-0.125 -0.03125 -0.671875 -0.1875q-0.546875 -0.171875 -1.03125 -0.3125q-0.46875 -0.15625 -0.671875 -0.234375q-2.6875 -0.953125 -2.6875 -3.53125q0 -1.8125 1.28125 -2.796875q1.296875 -0.984375 3.421875 -0.984375q2.421875 0 4.171875 0.984375l-0.75 1.8125q-1.78125 -0.8125 -3.3125 -0.8125q-1.109375 0 -1.671875 0.390625q-0.5625 0.390625 -0.59375 1.296875q0 1.109375 1.109375 1.4375q0.21875 0.09375 1.0625 0.375q0.859375 0.265625 1.125 0.34375q1.828125 0.59375 2.609375 1.5q0.796875 0.890625 0.796875 2.484375q0 1.890625 -1.359375 2.921875q-1.34375 1.03125 -3.625 1.03125zm9.659317 -0.1875l0 -11.375l-3.890625 0l0 -1.96875l10.234375 0l0 1.96875l-3.859375 0l0 11.375l-2.484375 0zm10.962891 0l0 -5.296875l-4.625 -8.046875l2.6875 0l3.171875 5.78125l3.203125 -5.78125l2.640625 0l-4.609375 8.0l0 5.34375l-2.46875 0zm8.204544 0l0 -13.375l4.953125 0q1.0 0 1.734375 0.09375q0.75 0.078125 1.421875 0.328125q0.671875 0.234375 1.078125 0.65625q0.421875 0.40625 0.65625 1.0625q0.25 0.65625 0.25 1.5625q0 2.65625 -2.40625 3.5q0.484375 0.546875 1.21875 2.046875l1.984375 4.125l-2.703125 0l-1.5625 -3.484375q-0.875 -1.875 -1.078125 -2.234375q-0.15625 0 -1.03125 0l-2.078125 -0.015625l0 5.734375l-2.4375 0zm5.171875 -7.5q1.421875 0 2.03125 -0.5q0.625 -0.515625 0.625 -1.640625q0 -0.984375 -0.640625 -1.4375q-0.625 -0.46875 -1.90625 -0.46875l-2.84375 0l0 4.03125q0.140625 0 1.359375 0.015625q1.21875 0 1.375 0zm7.4889984 7.5l0 -13.34375l8.09375 0l-0.109375 1.953125l-5.515625 0l0 3.453125l5.25 0l0 1.953125l-5.25 0l0 4.015625l5.71875 0l-0.078125 1.96875l-8.109375 0zm13.072266 0l0 -11.375l-3.890625 0l0 -1.96875l10.234375 0l0 1.96875l-3.859375 0l0 11.375l-2.484375 0z" fill-rule="nonzero"/><path fill="#000000" fill-opacity="0.0" d="m779.042 531.9878l175.21259 0l0 27.685059l-175.21259 0z" fill-rule="evenodd"/><path fill="#ff3e00" d="m789.4795 558.9078l0 -13.34375l8.09375 0l-0.109375 1.953125l-5.515625 0l0 3.453125l5.25 0l0 1.953125l-5.25 0l0 4.015625l5.71875 0l-0.078125 1.96875l-8.109375 0zm10.494141 0l0 -13.34375l2.46875 0l0 11.375l5.578125 0l-0.0625 1.96875l-7.984375 0zm9.756287 0l0 -13.34375l8.09375 0l-0.109375 1.953125l-5.515625 0l0 3.453125l5.25 0l0 1.953125l-5.25 0l0 4.015625l5.71875 0l-0.078125 1.96875l-8.109375 0zm13.853516 0l-4.84375 -13.34375l2.53125 0l2.828125 8.25q0.15625 0.421875 0.75 2.5q0.046875 -0.140625 0.34375 -1.1875q0.296875 -1.0625 0.390625 -1.296875q0.109375 -0.3125 1.375 -4.109375q1.28125 -3.8125 1.40625 -4.15625l2.515625 0l-4.796875 13.34375l-2.5 0zm12.424255 0.1875q-2.421875 0 -4.328125 -1.109375l0.59375 -1.96875q0.859375 0.484375 1.859375 0.78125q1.015625 0.28125 1.96875 0.28125q1.171875 0 1.765625 -0.5q0.609375 -0.515625 0.609375 -1.46875q0 -1.25 -1.671875 -1.734375q-0.125 -0.03125 -0.671875 -0.1875q-0.546875 -0.171875 -1.03125 -0.3125q-0.46875 -0.15625 -0.671875 -0.234375q-2.6875 -0.953125 -2.6875 -3.53125q0 -1.8125 1.28125 -2.796875q1.296875 -0.984375 3.421875 -0.984375q2.421875 0 4.171875 0.984375l-0.75 1.8125q-1.78125 -0.8125 -3.3125 -0.8125q-1.109375 0 -1.671875 0.390625q-0.5625 0.390625 -0.59375 1.296875q0 1.109375 1.109375 1.4375q0.21875 0.09375 1.0625 0.375q0.859375 0.265625 1.125 0.34375q1.828125 0.59375 2.609375 1.5q0.796875 0.890625 0.796875 2.484375q0 1.890625 -1.359375 2.921875q-1.34375 1.03125 -3.625 1.03125zm9.659302 -0.1875l0 -11.375l-3.890625 0l0 -1.96875l10.234375 0l0 1.96875l-3.859375 0l0 11.375l-2.484375 0zm10.962891 0l0 -5.296875l-4.625 -8.046875l2.6875 0l3.171875 5.78125l3.203125 -5.78125l2.640625 0l-4.609375 8.0l0 5.34375l-2.46875 0zm8.20459 0l0 -13.375l4.953125 0q1.0 0 1.734375 0.09375q0.75 0.078125 1.421875 0.328125q0.671875 0.234375 1.078125 0.65625q0.421875 0.40625 0.65625 1.0625q0.25 0.65625 0.25 1.5625q0 2.65625 -2.40625 3.5q0.484375 0.546875 1.21875 2.046875l1.984375 4.125l-2.703125 0l-1.5625 -3.484375q-0.875 -1.875 -1.078125 -2.234375q-0.15625 0 -1.03125 0l-2.078125 -0.015625l0 5.734375l-2.4375 0zm5.171875 -7.5q1.421875 0 2.03125 -0.5q0.625 -0.515625 0.625 -1.640625q0 -0.984375 -0.640625 -1.4375q-0.625 -0.46875 -1.90625 -0.46875l-2.84375 0l0 4.03125q0.140625 0 1.359375 0.015625q1.21875 0 1.375 0zm7.4889526 7.5l0 -13.34375l8.09375 0l-0.109375 1.953125l-5.515625 0l0 3.453125l5.25 0l0 1.953125l-5.25 0l0 4.015625l5.71875 0l-0.078125 1.96875l-8.109375 0zm13.072266 0l0 -11.375l-3.890625 0l0 -1.96875l10.234375 0l0 1.96875l-3.859375 0l0 11.375l-2.484375 0z" fill-rule="nonzero"/></g></svg>